<svg width="37" height="37" viewBox="0 0 37 37" fill="none" xmlns="http://www.w3.org/2000/svg">
<path d="M16.7083 27.4584H20.2916V20.2917H27.4583V16.7084H20.2916V9.54171H16.7083V16.7084H9.54158V20.2917H16.7083V27.4584ZM18.4999 36.4167C16.0214 36.4167 13.6923 35.9464 11.5124 35.0058C9.33256 34.0651 7.43638 32.7886 5.82388 31.1761C4.21138 29.5636 2.93481 27.6674 1.99419 25.4875C1.05356 23.3077 0.583252 20.9785 0.583252 18.5C0.583252 16.0216 1.05356 13.6924 1.99419 11.5125C2.93481 9.33268 4.21138 7.4365 5.82388 5.824C7.43638 4.2115 9.33256 2.93494 11.5124 1.99431C13.6923 1.05369 16.0214 0.583374 18.4999 0.583374C20.9784 0.583374 23.3076 1.05369 25.4874 1.99431C27.6673 2.93494 29.5635 4.2115 31.176 5.824C32.7885 7.4365 34.065 9.33268 35.0056 11.5125C35.9463 13.6924 36.4166 16.0216 36.4166 18.5C36.4166 20.9785 35.9463 23.3077 35.0056 25.4875C34.065 27.6674 32.7885 29.5636 31.176 31.1761C29.5635 32.7886 27.6673 34.0651 25.4874 35.0058C23.3076 35.9464 20.9784 36.4167 18.4999 36.4167ZM18.4999 32.8334C22.5013 32.8334 25.8905 31.4448 28.6676 28.6677C31.4447 25.8907 32.8333 22.5014 32.8333 18.5C32.8333 14.4987 31.4447 11.1094 28.6676 8.33233C25.8905 5.55525 22.5013 4.16671 18.4999 4.16671C14.4985 4.16671 11.1093 5.55525 8.33221 8.33233C5.55513 11.1094 4.16659 14.4987 4.16659 18.5C4.16659 22.5014 5.55513 25.8907 8.33221 28.6677C11.1093 31.4448 14.4985 32.8334 18.4999 32.8334Z" fill="#A4A4A4"/>
</svg>
