<svg width="15" height="15" viewBox="0 0 15 15" fill="none" xmlns="http://www.w3.org/2000/svg">
<path d="M9.0625 11.25C8.625 11.25 8.25521 11.099 7.95312 10.7969C7.65104 10.4948 7.5 10.125 7.5 9.6875C7.5 9.25 7.65104 8.88021 7.95312 8.57812C8.25521 8.27604 8.625 8.125 9.0625 8.125C9.5 8.125 9.86979 8.27604 10.1719 8.57812C10.474 8.88021 10.625 9.25 10.625 9.6875C10.625 10.125 10.474 10.4948 10.1719 10.7969C9.86979 11.099 9.5 11.25 9.0625 11.25ZM3.125 13.75C2.78125 13.75 2.48698 13.6276 2.24219 13.3828C1.9974 13.138 1.875 12.8438 1.875 12.5V3.75C1.875 3.40625 1.9974 3.11198 2.24219 2.86719C2.48698 2.6224 2.78125 2.5 3.125 2.5H3.75V1.25H5V2.5H10V1.25H11.25V2.5H11.875C12.2188 2.5 12.513 2.6224 12.7578 2.86719C13.0026 3.11198 13.125 3.40625 13.125 3.75V12.5C13.125 12.8438 13.0026 13.138 12.7578 13.3828C12.513 13.6276 12.2188 13.75 11.875 13.75H3.125ZM3.125 12.5H11.875V6.25H3.125V12.5ZM3.125 5H11.875V3.75H3.125V5Z" fill="#2A450F"/>
</svg>
