<svg width="13" height="13" viewBox="0 0 13 13" fill="none" xmlns="http://www.w3.org/2000/svg">
<path d="M6.20622 8.54014C6.35276 8.54014 6.47559 8.492 6.57471 8.39572C6.67384 8.29943 6.7234 8.18012 6.7234 8.03778C6.7234 7.89545 6.67384 7.77614 6.57471 7.67985C6.47559 7.58357 6.35276 7.53543 6.20622 7.53543C6.05969 7.53543 5.93686 7.58357 5.83773 7.67985C5.73861 7.77614 5.68904 7.89545 5.68904 8.03778C5.68904 8.18012 5.73861 8.29943 5.83773 8.39572C5.93686 8.492 6.05969 8.54014 6.20622 8.54014ZM5.68904 6.53071H6.7234V3.51656H5.68904V6.53071ZM6.20622 11.0519C5.49079 11.0519 4.81846 10.9201 4.18922 10.6563C3.55999 10.3926 3.01264 10.0347 2.54718 9.58254C2.08171 9.13041 1.71322 8.59875 1.4417 7.98755C1.17018 7.37635 1.03442 6.72328 1.03442 6.02835C1.03442 5.33342 1.17018 4.68035 1.4417 4.06915C1.71322 3.45795 2.08171 2.92628 2.54718 2.47416C3.01264 2.02204 3.55999 1.66411 4.18922 1.40037C4.81846 1.13663 5.49079 1.00476 6.20622 1.00476C6.92166 1.00476 7.59399 1.13663 8.22322 1.40037C8.85246 1.66411 9.39981 2.02204 9.86527 2.47416C10.3307 2.92628 10.6992 3.45795 10.9707 4.06915C11.2423 4.68035 11.378 5.33342 11.378 6.02835C11.378 6.72328 11.2423 7.37635 10.9707 7.98755C10.6992 8.59875 10.3307 9.13041 9.86527 9.58254C9.39981 10.0347 8.85246 10.3926 8.22322 10.6563C7.59399 10.9201 6.92166 11.0519 6.20622 11.0519ZM6.20622 10.0472C7.36126 10.0472 8.33959 9.65789 9.14122 8.87924C9.94285 8.10058 10.3437 7.15028 10.3437 6.02835C10.3437 4.90641 9.94285 3.95612 9.14122 3.17746C8.33959 2.39881 7.36126 2.00948 6.20622 2.00948C5.05119 2.00948 4.07286 2.39881 3.27123 3.17746C2.4696 3.95612 2.06878 4.90641 2.06878 6.02835C2.06878 7.15028 2.4696 8.10058 3.27123 8.87924C4.07286 9.65789 5.05119 10.0472 6.20622 10.0472Z" fill="#797979"/>
</svg>
