<svg width="116" height="116" viewBox="0 0 116 116" fill="none" xmlns="http://www.w3.org/2000/svg">
<circle cx="58" cy="58" r="58" fill="#E0F7DA"/>
<g clip-path="url(#clip0_1600_32)">
<mask id="mask0_1600_32" style="mask-type:luminance" maskUnits="userSpaceOnUse" x="21" y="20" width="75" height="75">
<path d="M96 20H21V95H96V20Z" fill="white"/>
</mask>
<g mask="url(#mask0_1600_32)">
<path d="M47.8342 26.1255C52.6262 17.9582 64.4344 17.9582 69.2261 26.1255L69.4001 26.4221C71.6111 30.19 75.6409 32.5167 80.0093 32.5473L80.3535 32.5497C89.8226 32.616 95.7266 42.8421 91.0493 51.0758L90.8794 51.3748C88.7216 55.1732 88.7216 59.8269 90.8794 63.6253L91.0493 63.9241C95.7266 72.158 89.8226 82.3839 80.3535 82.4502L80.0093 82.4525C75.6409 82.4832 71.6111 84.8101 69.4001 88.5777L69.2261 88.8744C64.4344 97.0419 52.6262 97.0419 47.8342 88.8744L47.6602 88.5777C45.4495 84.8101 41.4194 82.4832 37.051 82.4525L36.7071 82.4502C27.238 82.3839 21.334 72.158 26.0111 63.9241L26.181 63.6253C28.3387 59.8269 28.3387 55.1732 26.181 51.3748L26.0111 51.0758C21.334 42.8421 27.238 32.616 36.7071 32.5497L37.051 32.5473C41.4194 32.5167 45.4495 30.19 47.6602 26.4221L47.8342 26.1255Z" fill="#ADCF9F"/>
</g>
<circle cx="62.0047" cy="57.5001" r="17.8738" fill="white"/>
<g clip-path="url(#clip1_1600_32)">
<mask id="mask1_1600_32" style="mask-type:alpha" maskUnits="userSpaceOnUse" x="33" y="29" width="54" height="56">
<path fill-rule="evenodd" clip-rule="evenodd" d="M86.1868 29.8131H33.6167V84.8865H86.1868V29.8131ZM71.7353 52.8616C72.7131 51.884 72.7131 50.299 71.7353 49.3213C70.7577 48.3437 69.1726 48.3437 68.195 49.3213L56.1683 61.3482L51.655 56.8529C50.6754 55.8771 49.0904 55.8804 48.1147 56.8599C47.1391 57.8395 47.1422 59.4246 48.1218 60.4001L54.4052 66.6585C55.3835 67.6328 56.9656 67.6313 57.9419 66.655L71.7353 52.8616Z" fill="white"/>
</mask>
<g mask="url(#mask1_1600_32)">
<path d="M60.8405 86.5504C75.8757 86.5504 88.0644 74.3618 88.0644 59.3266C88.0644 44.2913 75.8757 32.1028 60.8405 32.1028C45.8052 32.1028 33.6167 44.2913 33.6167 59.3266C33.6167 74.3618 45.8052 86.5504 60.8405 86.5504Z" fill="#ADCF9F" stroke="#ADCF9F" stroke-width="4.41468" stroke-miterlimit="10" stroke-linecap="round"/>
</g>
</g>
</g>
<defs>
<clipPath id="clip0_1600_32">
<rect width="75" height="75" fill="white" transform="translate(21 20)"/>
</clipPath>
<clipPath id="clip1_1600_32">
<rect width="57.4766" height="55.1776" fill="white" transform="translate(30.813 26.3083)"/>
</clipPath>
</defs>
</svg>
