<svg width="9" height="12" viewBox="0 0 9 12" fill="none" xmlns="http://www.w3.org/2000/svg">
<path d="M3.93133 9.63643L6.99175 6.29779L6.20633 5.44098L3.91779 7.93757L2.78029 6.69666L2.00841 7.5387L3.93133 9.63643ZM1.25008 12.0001C0.952165 12.0001 0.69713 11.8843 0.484977 11.6529C0.272824 11.4215 0.166748 11.1432 0.166748 10.8182V1.3637C0.166748 1.0387 0.272824 0.760483 0.484977 0.529044C0.69713 0.297604 0.952165 0.181885 1.25008 0.181885H5.58341L8.83342 3.72734V10.8182C8.83342 11.1432 8.72734 11.4215 8.51519 11.6529C8.30303 11.8843 8.048 12.0001 7.75008 12.0001H1.25008ZM5.04175 4.31825V1.3637H1.25008V10.8182H7.75008V4.31825H5.04175Z" fill="#B0D084"/>
</svg>
