<svg width="16" height="16" viewBox="0 0 16 16" fill="none" xmlns="http://www.w3.org/2000/svg">
<path d="M7.34997 14V12.5667C6.76108 12.4333 6.25275 12.1778 5.82497 11.8C5.39719 11.4222 5.0833 10.8889 4.8833 10.2L6.11663 9.7C6.2833 10.2333 6.53052 10.6389 6.8583 10.9167C7.18608 11.1944 7.61663 11.3333 8.14997 11.3333C8.60552 11.3333 8.99163 11.2306 9.3083 11.025C9.62497 10.8194 9.7833 10.5 9.7833 10.0667C9.7833 9.67778 9.66108 9.36944 9.41663 9.14167C9.17219 8.91389 8.60552 8.65556 7.71663 8.36667C6.76108 8.06667 6.10552 7.70833 5.74997 7.29167C5.39441 6.875 5.21663 6.36667 5.21663 5.76667C5.21663 5.04444 5.44997 4.48333 5.91663 4.08333C6.3833 3.68333 6.86108 3.45556 7.34997 3.4V2H8.6833V3.4C9.23886 3.48889 9.69719 3.69167 10.0583 4.00833C10.4194 4.325 10.6833 4.71111 10.85 5.16667L9.61663 5.7C9.4833 5.34444 9.29441 5.07778 9.04997 4.9C8.80552 4.72222 8.47219 4.63333 8.04997 4.63333C7.56108 4.63333 7.18886 4.74167 6.9333 4.95833C6.67775 5.175 6.54997 5.44444 6.54997 5.76667C6.54997 6.13333 6.71663 6.42222 7.04997 6.63333C7.3833 6.84444 7.96108 7.06667 8.7833 7.3C9.54997 7.52222 10.1305 7.875 10.525 8.35833C10.9194 8.84167 11.1166 9.4 11.1166 10.0333C11.1166 10.8222 10.8833 11.4222 10.4166 11.8333C9.94997 12.2444 9.37219 12.5 8.6833 12.6V14H7.34997Z" fill="#5C5A5A"/>
</svg>
