<svg width="32" height="25" viewBox="0 0 32 25" fill="none" xmlns="http://www.w3.org/2000/svg">
<rect width="32" height="25" rx="7" fill="#D9D9D9"/>
<path d="M11.4 15.7C11.1555 15.2777 10.9722 14.8444 10.85 14.4C10.7277 13.9555 10.6666 13.5 10.6666 13.0333C10.6666 11.5444 11.1833 10.2777 12.2166 9.23329C13.25 8.18885 14.5111 7.66663 16 7.66663H16.1166L15.05 6.59996L15.9833 5.66663L18.65 8.33329L15.9833 11L15.05 10.0666L16.1166 8.99996H16C14.8888 8.99996 13.9444 9.39163 13.1666 10.175C12.3888 10.9583 12 11.9111 12 13.0333C12 13.3222 12.0333 13.6055 12.1 13.8833C12.1666 14.1611 12.2666 14.4333 12.4 14.7L11.4 15.7ZM16.0166 20.3333L13.35 17.6666L16.0166 15L16.95 15.9333L15.8833 17H16C17.1111 17 18.0555 16.6083 18.8333 15.825C19.6111 15.0416 20 14.0888 20 12.9666C20 12.6777 19.9666 12.3944 19.9 12.1166C19.8333 11.8388 19.7333 11.5666 19.6 11.3L20.6 10.3C20.8444 10.7222 21.0277 11.1555 21.15 11.6C21.2722 12.0444 21.3333 12.5 21.3333 12.9666C21.3333 14.4555 20.8166 15.7222 19.7833 16.7666C18.75 17.8111 17.4888 18.3333 16 18.3333H15.8833L16.95 19.4L16.0166 20.3333Z" fill="black"/>
</svg>
